<svg xmlns="http://www.w3.org/2000/svg" xmlns:xlink="http://www.w3.org/1999/xlink" width="500" zoomAndPan="magnify" viewBox="0 0 375 374.999991" height="500" preserveAspectRatio="xMidYMid meet" version="1.0"><defs><g/></defs><g fill="#000000" fill-opacity="1"><g transform="translate(71.350723, 223.975344)"><g><path d="M 19.84375 0 L 19.84375 -162.03125 L 51.921875 -162.03125 L 58.53125 -144.1875 C 61.613281 -149.914062 66.628906 -154.597656 73.578125 -158.234375 C 80.523438 -161.867188 87.632812 -163.6875 94.90625 -163.6875 C 106.375 -163.6875 115.023438 -160.210938 120.859375 -153.265625 C 126.703125 -146.328125 130.335938 -137.289062 131.765625 -126.15625 C 133.203125 -115.019531 132.929688 -103.171875 130.953125 -90.609375 L 92.265625 -84 L 92.265625 -107.140625 C 92.265625 -115.078125 90.773438 -120.585938 87.796875 -123.671875 C 84.816406 -126.765625 80.679688 -128.3125 75.390625 -128.3125 C 70.097656 -128.3125 65.960938 -126.765625 62.984375 -123.671875 C 60.015625 -120.585938 58.53125 -115.078125 58.53125 -107.140625 L 58.53125 0 Z M 19.84375 0 "/></g></g></g><g fill="#000000" fill-opacity="1"><g transform="translate(144.224117, 315.164113)"><g><path d="M 19.84375 0 L 19.84375 -35.390625 L 95.90625 -126.65625 L 19.84375 -126.65625 L 19.84375 -162.03125 L 142.859375 -162.03125 L 142.859375 -126.65625 L 66.796875 -35.390625 L 142.859375 -35.390625 L 142.859375 0 Z M 19.84375 0 "/></g></g></g><path stroke-linecap="butt" transform="matrix(0.75, -0.000000000000001023, 0.000000000000001023, 0.75, 90.154158, 236.944657)" fill="none" stroke-linejoin="miter" d="M -0.00241871 24.000875 L 86.653837 24.000875 " stroke="#7267f6" stroke-width="48" stroke-opacity="1" stroke-miterlimit="4"/><path stroke-linecap="butt" transform="matrix(0.749983, 0.00508777, -0.00508777, 0.749983, 212.280473, 106.674507)" fill="none" stroke-linejoin="miter" d="M 0.00240167 24.002238 L 99.275518 24.000674 " stroke="#7267f6" stroke-width="48" stroke-opacity="1" stroke-miterlimit="4"/><path stroke-linecap="butt" transform="matrix(0.749941, 0.00943031, -0.00943031, 0.749941, 164.05473, 108.363502)" fill="none" stroke-linejoin="miter" d="M -0.000349625 24.001609 L 53.561159 24.000015 " stroke="#000000" stroke-width="48" stroke-opacity="1" stroke-miterlimit="4"/></svg>